<?xml version="1.0" standalone="no"?><!DOCTYPE svg PUBLIC "-//W3C//DTD SVG 1.1//EN" "http://www.w3.org/Graphics/SVG/1.1/DTD/svg11.dtd"><svg t="1634734790097" class="icon" viewBox="0 0 1024 1024" version="1.1" xmlns="http://www.w3.org/2000/svg" p-id="1712" id="mx_n_1634734790098" xmlns:xlink="http://www.w3.org/1999/xlink" width="200" height="200"><defs><style type="text/css"></style></defs><path d="M725.333333 960v21.333333a21.333333 21.333333 0 0 1-21.333333 21.333334H320a21.333333 21.333333 0 0 1-21.333333-21.333334v-21.333333l64-42.666667v-128h298.666666v128z" fill="#A4B0C0" p-id="1713"></path><path d="M1002.666667 597.333333v106.666667a85.333333 85.333333 0 0 1-85.333334 85.333333H106.666667a85.333333 85.333333 0 0 1-85.333334-85.333333v-106.666667z" fill="#F1F2F2" p-id="1714"></path><path d="M1002.666667 490.666667v106.666666H21.333333V106.666667a85.333333 85.333333 0 0 1 85.333334-85.333334h810.666666a85.333333 85.333333 0 0 1 85.333334 85.333334z" fill="#A4B0C0" p-id="1715"></path><path d="M874.666667 362.666667H149.333333v-128h725.333334v128z" fill="#F1F2F2" p-id="1716"></path><path d="M874.666667 490.666667v106.666666H192a42.794667 42.794667 0 0 1-42.666667-42.666666v-192h725.333334zM874.666667 170.666667v64H149.333333V170.666667a42.794667 42.794667 0 0 1 42.666667-42.666667h640a42.794667 42.794667 0 0 1 42.666667 42.666667z" fill="#FED049" p-id="1717"></path><path d="M1002.666667 512a21.333333 21.333333 0 0 0 21.333333-21.333333V106.666667a106.794667 106.794667 0 0 0-106.666667-106.666667H106.666667a106.794667 106.794667 0 0 0-106.666667 106.666667v597.333333a106.794667 106.794667 0 0 0 106.666667 106.666667h234.666666v95.253333l-54.506666 36.266667A21.333333 21.333333 0 0 0 277.333333 960v21.333333a42.666667 42.666667 0 0 0 42.666667 42.666667h384a42.666667 42.666667 0 0 0 42.666667-42.666667v-21.333333a21.333333 21.333333 0 0 0-9.493334-17.749333L682.666667 905.92V874.666667a21.333333 21.333333 0 0 0-42.666667 0v42.666666a21.333333 21.333333 0 0 0 9.493333 17.749334L704 971.413333V981.333333H320v-9.92l54.506667-36.266666A21.333333 21.333333 0 0 0 384 917.333333v-106.666666h533.333333a106.794667 106.794667 0 0 0 106.666667-106.666667v-106.666667a21.333333 21.333333 0 0 0-21.333333-21.333333H192a21.333333 21.333333 0 0 1-21.333333-21.333333v-106.666667a21.333333 21.333333 0 0 0-42.666667 0v106.666667a64 64 0 0 0 64 64h789.333333v85.333333a64 64 0 0 1-64 64H106.666667a64 64 0 0 1-64-64V106.666667a64 64 0 0 1 64-64h810.666666a64 64 0 0 1 64 64v384a21.333333 21.333333 0 0 0 21.333334 21.333333z" fill="#474C54" p-id="1718"></path><path d="M896 170.666667a64 64 0 0 0-64-64H192a64 64 0 0 0-64 64v64a21.333333 21.333333 0 0 0 21.333333 21.333333h618.666667a21.333333 21.333333 0 0 0 0-42.666667H170.666667V170.666667a21.333333 21.333333 0 0 1 21.333333-21.333334h640a21.333333 21.333333 0 0 1 21.333333 21.333334v106.666666a21.333333 21.333333 0 0 0 42.666667 0zM874.666667 512a21.333333 21.333333 0 0 0 21.333333-21.333333v-128a21.333333 21.333333 0 0 0-21.333333-21.333334H149.333333a21.333333 21.333333 0 0 0 0 42.666667h704v106.666667a21.333333 21.333333 0 0 0 21.333334 21.333333zM256 448a21.333333 21.333333 0 0 0 0 42.666667h128a21.333333 21.333333 0 0 0 0-42.666667z" fill="#474C54" p-id="1719"></path><path d="M725.333333 448a21.333333 21.333333 0 0 0 0 42.666667h42.666667a21.333333 21.333333 0 0 0 0-42.666667zM597.333333 448a21.333333 21.333333 0 0 0 0 42.666667h42.666667a21.333333 21.333333 0 0 0 0-42.666667z" fill="#474C54" p-id="1720"></path></svg>